          <svg
            id="Layer_1"
            data-name="Layer 1"
            xmlns="http://www.w3.org/2000/svg"
            viewBox="0 0 165.21 55.46"
          >
            <defs>
              <style>
                .cls-1 {
                  fill: #181f2d;
                }
              </style>
            </defs>
            <path
              class="cls-1"
              d="M166.34,118.18a.86.86,0,0,1-.92.86c-.47,0-.95-.06-1.46-.06q-4.65,0-6.38,3.67a.89.89,0,0,0-.09.39V141.1a.86.86,0,0,1-.86.87h-3.11a.87.87,0,0,1-.87-.87V115.89a.87.87,0,0,1,.87-.87h3a.86.86,0,0,1,.86.85h0a.87.87,0,0,0,1.44.63,7.62,7.62,0,0,1,5.38-2,7.08,7.08,0,0,1,1.5.14.84.84,0,0,1,.64.84Z"
              transform="translate(-94.84 -96.87)"
            />
            <path
              class="cls-1"
              d="M165,128.24a15.27,15.27,0,0,1,1.63-7.12,11.89,11.89,0,0,1,4.56-4.88,12.87,12.87,0,0,1,6.67-1.72,12.26,12.26,0,0,1,9.36,3.81q3.57,3.81,3.57,10.14v.32a15.44,15.44,0,0,1-1.58,7.06,11.65,11.65,0,0,1-4.53,4.87,13.08,13.08,0,0,1-6.77,1.75,12.24,12.24,0,0,1-9.34-3.82Q165,134.84,165,128.57Zm4.87.55a11.12,11.12,0,0,0,2.19,7.2,7.64,7.64,0,0,0,11.71,0q2.18-2.74,2.18-7.71a11.08,11.08,0,0,0-2.22-7.18,7.59,7.59,0,0,0-11.66,0Q169.86,123.74,169.86,128.79Z"
              transform="translate(-94.84 -96.87)"
            />
            <path
              class="cls-1"
              d="M217.79,128.79q0,6.15-3,9.91a9.66,9.66,0,0,1-8,3.77,11.4,11.4,0,0,1-6.57-1.8,1,1,0,0,0-1.55.82v9.84a1,1,0,0,1-1,1h-2.85a1,1,0,0,1-1-1V116a1,1,0,0,1,1-1h2.51a1,1,0,0,1,1,.91h0a1,1,0,0,0,1.61.69,10.67,10.67,0,0,1,6.78-2.1,9.84,9.84,0,0,1,8.07,3.66q3,3.66,3,10.19Zm-4.85-.52a11.49,11.49,0,0,0-2-7.2,6.69,6.69,0,0,0-5.6-2.64,7.17,7.17,0,0,0-6.45,3.46,1,1,0,0,0-.15.55v12.29a1,1,0,0,0,.15.54,7.19,7.19,0,0,0,6.5,3.43,6.67,6.67,0,0,0,5.54-2.62C212.26,134.33,212.94,131.72,212.94,128.27Z"
              transform="translate(-94.84 -96.87)"
            />
            <path
              class="cls-1"
              d="M232.8,142.74a12.72,12.72,0,0,1-9.38-3.6,13,13,0,0,1-3.61-9.63v-.85a15.56,15.56,0,0,1,1.61-7.16,12.27,12.27,0,0,1,4.5-4.93,11.82,11.82,0,0,1,6.28-1.78q5.52,0,8.58,3.46t3.07,9.92v.91a1,1,0,0,1-1,1H225.73a1,1,0,0,0-1,1.13,8.93,8.93,0,0,0,2.37,5.31,7.88,7.88,0,0,0,6,2.45,8.85,8.85,0,0,0,4.35-1,10.68,10.68,0,0,0,2.55-2,1,1,0,0,1,1.3-.09l1.41,1a1,1,0,0,1,.17,1.46Q239.32,142.74,232.8,142.74Zm-.6-24.16a6.61,6.61,0,0,0-4.93,2,9,9,0,0,0-2.25,4.46,1,1,0,0,0,1,1.23h11.93a1,1,0,0,0,1-1.13,8.4,8.4,0,0,0-1.91-4.66A6.35,6.35,0,0,0,232.2,118.58Z"
              transform="translate(-94.84 -96.87)"
            />
            <path
              class="cls-1"
              d="M260,118.18a.86.86,0,0,1-.92.86c-.47,0-.95-.06-1.46-.06q-4.65,0-6.38,3.67a.89.89,0,0,0-.09.39V141.1a.87.87,0,0,1-.86.87h-3.11a.87.87,0,0,1-.87-.87V115.89a.87.87,0,0,1,.87-.87h3a.86.86,0,0,1,.86.85h0a.87.87,0,0,0,1.44.63,7.62,7.62,0,0,1,5.38-2,7.08,7.08,0,0,1,1.5.14.84.84,0,0,1,.64.84Z"
              transform="translate(-94.84 -96.87)"
            />
            <path
              class="cls-1"
              d="M129.71,111.16a6.65,6.65,0,0,1,2.15,5.19,6.45,6.45,0,0,1-2.15,5.22,9.32,9.32,0,0,1-6.18,1.81h-8a1,1,0,0,1-1-1V110.13a1,1,0,0,1,1-1h8.32A8.72,8.72,0,0,1,129.71,111.16Z"
              transform="translate(-94.84 -96.87)"
            />
            <path
              class="cls-1"
              d="M137.53,96.87H103A8.13,8.13,0,0,0,94.84,105v36.77A8.13,8.13,0,0,0,103,149.9h34.54a10.36,10.36,0,0,0,10.36-10.35V107.21A10.34,10.34,0,0,0,137.53,96.87Zm-4.12,27.57q-3.47,2.85-9.93,2.85h-8a1,1,0,0,0-1,1v12.2a1,1,0,0,1-1,1h-3a1,1,0,0,1-1-1V106.34a1.12,1.12,0,0,1,1.12-1.12h12.94q6.25,0,9.81,3a10.09,10.09,0,0,1,3.54,8C136.88,119.83,135.73,122.54,133.41,124.44Z"
              transform="translate(-94.84 -96.87)"
            />
          </svg>