<svg xmlns="http://www.w3.org/2000/svg" viewBox="0 0 448 512"><defs><style>.a{fill:#fff;}</style></defs><rect class="a" width="448" height="512"/><path d="M263.89,185.62A39.89,39.89,0,1,0,224,225.51,39.89,39.89,0,0,0,263.89,185.62Zm-103.71,0A63.82,63.82,0,1,1,224,249.44,63.82,63.82,0,0,1,160.18,185.62ZM136.9,353.15H311.1a65,65,0,0,0-64.31-55.85H201.21A65,65,0,0,0,136.9,353.15Zm-24.59,9.12a88.88,88.88,0,0,1,88.9-88.9h45.58a88.88,88.88,0,0,1,88.9,88.9,14.82,14.82,0,0,1-14.81,14.81H127.12A14.82,14.82,0,0,1,112.31,362.27Z"/></svg>